<svg xmlns="http://www.w3.org/2000/svg" version="1.1" xmlns:xlink="http://www.w3.org/1999/xlink" xmlns:svgjs="http://svgjs.dev/svgjs" width="2000" height="1500" viewBox="0 0 2000 1500"><rect width="2000" height="1500" fill="#11111c"></rect><g transform="matrix(0.75,0,0,0.75,249.090909090909,668.4065732992827)"><svg viewBox="0 0 396 43" data-background-color="#11111c" preserveAspectRatio="xMidYMid meet" height="217" width="2000" xmlns="http://www.w3.org/2000/svg" xmlns:xlink="http://www.w3.org/1999/xlink"><g id="tight-bounds" transform="matrix(1,0,0,1,0.2400000000000091,0.05771028037383985)"><svg viewBox="0 0 395.52 42.884579439252335" height="42.884579439252335" width="395.52"><g><svg viewBox="0 0 395.52 42.884579439252335" height="42.884579439252335" width="395.52"><g><svg viewBox="0 0 395.52 42.884579439252335" height="42.884579439252335" width="395.52"><g id="textblocktransform"><svg viewBox="0 0 395.52 42.884579439252335" height="42.884579439252335" width="395.52" id="textblock"><g><svg viewBox="0 0 395.52 42.884579439252335" height="42.884579439252335" width="395.52"><g transform="matrix(1,0,0,1,0,0)"><svg width="395.52" viewBox="3.25 -35.5 334.35 36.26" height="42.884579439252335" data-palette-color="#96ea63"><path d="M31.25-10.5L31.25-10.5Q31.25-8.33 30.42-6.42 29.59-4.52 28.16-3.09 26.73-1.66 24.83-0.83 22.92 0 20.75 0L20.75 0 3.25 0 3.25-35.01 20.75-35.01Q22.92-35.01 24.83-34.18 26.73-33.35 28.16-31.92 29.59-30.49 30.42-28.59 31.25-26.68 31.25-24.51L31.25-24.51Q31.25-23.54 30.98-22.51 30.71-21.48 30.22-20.53 29.74-19.58 29.05-18.8 28.37-18.02 27.54-17.5L27.54-17.5Q28.39-17.04 29.08-16.25 29.76-15.45 30.25-14.5 30.74-13.55 30.99-12.51 31.25-11.47 31.25-10.5ZM10.25-13.99L10.25-7.01 20.75-7.01Q21.48-7.01 22.12-7.28 22.75-7.54 23.23-8.02 23.71-8.5 23.97-9.13 24.24-9.77 24.24-10.5L24.24-10.5Q24.24-11.23 23.97-11.87 23.71-12.5 23.23-12.98 22.75-13.45 22.12-13.72 21.48-13.99 20.75-13.99L20.75-13.99 10.25-13.99ZM10.25-28L10.25-21 20.75-21Q21.48-21 22.12-21.26 22.75-21.53 23.23-22.01 23.71-22.49 23.97-23.13 24.24-23.78 24.24-24.51L24.24-24.51Q24.24-25.24 23.97-25.88 23.71-26.51 23.23-26.99 22.75-27.47 22.12-27.73 21.48-28 20.75-28L20.75-28 10.25-28ZM61.06-7.01L61.06 0 36.55 0 36.55-35.01 43.55-35.01 43.55-7.01 61.06-7.01ZM97.8-17.36L97.8-17.36Q97.8-14.87 97.15-12.56 96.5-10.25 95.33-8.24 94.16-6.23 92.5-4.57 90.84-2.91 88.84-1.72 86.84-0.54 84.52 0.11 82.2 0.76 79.71 0.76L79.71 0.76Q77.22 0.76 74.91 0.11 72.6-0.54 70.59-1.72 68.57-2.91 66.91-4.57 65.25-6.23 64.07-8.24 62.89-10.25 62.24-12.56 61.59-14.87 61.59-17.36L61.59-17.36Q61.59-19.85 62.24-22.17 62.89-24.49 64.07-26.49 65.25-28.49 66.91-30.15 68.57-31.81 70.59-32.98 72.6-34.16 74.91-34.8 77.22-35.45 79.71-35.45L79.71-35.45Q82.2-35.45 84.52-34.8 86.84-34.16 88.84-32.98 90.84-31.81 92.5-30.15 94.16-28.49 95.33-26.49 96.5-24.49 97.15-22.17 97.8-19.85 97.8-17.36ZM90.84-17.36L90.84-17.36Q90.84-19.65 89.96-21.69 89.08-23.73 87.58-25.23 86.08-26.73 84.04-27.61 82-28.49 79.71-28.49L79.71-28.49Q77.39-28.49 75.36-27.61 73.33-26.73 71.82-25.23 70.31-23.73 69.43-21.69 68.55-19.65 68.55-17.36L68.55-17.36Q68.55-15.06 69.43-13.05 70.31-11.04 71.82-9.52 73.33-8.01 75.36-7.13 77.39-6.25 79.71-6.25L79.71-6.25Q82-6.25 84.04-7.13 86.08-8.01 87.58-9.52 89.08-11.04 89.96-13.05 90.84-15.06 90.84-17.36ZM126.63-9.69L130.34-3.59Q127.9-1.49 124.87-0.37 121.84 0.76 118.6 0.76L118.6 0.76Q116.11 0.76 113.8 0.11 111.49-0.54 109.48-1.72 107.46-2.91 105.8-4.57 104.14-6.23 102.96-8.24 101.77-10.25 101.13-12.56 100.48-14.87 100.48-17.36L100.48-17.36Q100.48-19.85 101.13-22.17 101.77-24.49 102.96-26.5 104.14-28.52 105.8-30.18 107.46-31.84 109.48-33.02 111.49-34.2 113.8-34.85 116.11-35.5 118.6-35.5L118.6-35.5Q121.84-35.5 124.87-34.39 127.9-33.28 130.34-31.15L130.34-31.15 126.63-25.05Q125.09-26.71 122.99-27.6 120.89-28.49 118.6-28.49L118.6-28.49Q116.28-28.49 114.25-27.61 112.22-26.73 110.71-25.23 109.2-23.73 108.32-21.69 107.44-19.65 107.44-17.36L107.44-17.36Q107.44-15.06 108.32-13.05 109.2-11.04 110.71-9.52 112.22-8.01 114.25-7.13 116.28-6.25 118.6-6.25L118.6-6.25Q120.89-6.25 122.99-7.14 125.09-8.03 126.63-9.69L126.63-9.69ZM141.4-7.01L141.4 0 134.39 0 134.39-35.01 141.4-35.01 141.4-17.5 154.43-35.01 162.39-35.01 151.33-20.24 162.39 0 154.43 0 146.74-14.16 141.4-7.01ZM189.64-7.01L189.64 0 165.64 0 165.64-35.01 189.64-35.01 189.64-28 172.64-28 172.64-21 184.14-21 184.14-13.99 172.64-13.99 172.64-7.01 189.64-7.01ZM192.1-24.51L192.1-24.51Q192.1-26.68 192.93-28.59 193.76-30.49 195.19-31.92 196.62-33.35 198.52-34.18 200.42-35.01 202.6-35.01L202.6-35.01 218.66-35.01 218.66-28 202.6-28Q201.86-28 201.23-27.73 200.6-27.47 200.12-26.99 199.64-26.51 199.37-25.88 199.11-25.24 199.11-24.51L199.11-24.51Q199.11-23.78 199.37-23.13 199.64-22.49 200.12-22.01 200.6-21.53 201.23-21.26 201.86-21 202.6-21L202.6-21 209.6-21Q211.78-21 213.69-20.18 215.61-19.36 217.04-17.93 218.47-16.5 219.28-14.59 220.1-12.67 220.1-10.5L220.1-10.5Q220.1-8.33 219.28-6.42 218.47-4.52 217.04-3.09 215.61-1.66 213.69-0.83 211.78 0 209.6 0L209.6 0 194.05 0 194.05-7.01 209.6-7.01Q210.34-7.01 210.97-7.28 211.61-7.54 212.08-8.02 212.56-8.5 212.83-9.13 213.1-9.77 213.1-10.5L213.1-10.5Q213.1-11.23 212.83-11.87 212.56-12.5 212.08-12.98 211.61-13.45 210.97-13.72 210.34-13.99 209.6-13.99L209.6-13.99 202.6-13.99Q200.42-13.99 198.52-14.82 196.62-15.65 195.19-17.08 193.76-18.51 192.93-20.42 192.1-22.34 192.1-24.51ZM238.9-28L238.9 0 231.92 0 231.92-28 221.39-28 221.39-35.01 249.4-35.01 249.4-28 238.9-28ZM258.65-13.99L272.66-13.99 272.66-21Q272.66-22.44 272.11-23.72 271.56-25 270.61-25.95 269.66-26.9 268.38-27.45 267.09-28 265.65-28L265.65-28Q264.21-28 262.93-27.45 261.65-26.9 260.7-25.95 259.75-25 259.2-23.72 258.65-22.44 258.65-21L258.65-21 258.65-13.99ZM279.67-21L279.67 0 272.66 0 272.66-7.01 258.65-7.01 258.65 0 251.66 0 251.66-21Q251.66-23.9 252.76-26.45 253.86-29 255.75-30.91 257.65-32.81 260.2-33.91 262.75-35.01 265.65-35.01L265.65-35.01Q268.56-35.01 271.11-33.91 273.66-32.81 275.57-30.91 277.47-29 278.57-26.45 279.67-23.9 279.67-21L279.67-21ZM299.39-28L299.39 0 292.41 0 292.41-28 281.89-28 281.89-35.01 309.89-35.01 309.89-28 299.39-28ZM337.6-7.01L337.6 0 313.6 0 313.6-35.01 337.6-35.01 337.6-28 320.6-28 320.6-21 332.1-21 332.1-13.99 320.6-13.99 320.6-7.01 337.6-7.01Z" opacity="1" transform="matrix(1,0,0,1,0,0)" fill="#96ea63" class="wordmark-text-0" data-fill-palette-color="primary" id="text-0"></path></svg></g></svg></g></svg></g></svg></g></svg></g><defs></defs></svg><rect width="395.52" height="42.884579439252335" fill="none" stroke="none" visibility="hidden"></rect></g></svg></g></svg>